<?xml version="1.0" encoding="utf-8"?>
<!-- Generator: Adobe Illustrator 22.1.0, SVG Export Plug-In . SVG Version: 6.00 Build 0)  -->
<svg version="1.1" id="Layer_1" xmlns="http://www.w3.org/2000/svg" xmlns:xlink="http://www.w3.org/1999/xlink" x="0px" y="0px"
	 viewBox="0 0 512 512" style="enable-background:new 0 0 512 512;" xml:space="preserve">
<g>
	<path fill="#fff" d="M467.8,83.9c0-18.5-2.6-37.1-10.6-52.9c-13.2,31.8-39.7,58.2-71.5,68.8C348.6,73.4,303.6,57.5,256,57.5
		s-92.6,15.9-129.7,42.4C94.5,89.2,68.1,62.8,54.8,31c-7.9,15.9-10.6,34.4-10.6,52.9c0,31.8,10.6,58.2,26.5,82.1
		c-15.9,29.1-26.5,66.2-26.5,103.2C44.2,385.7,139.5,481,256,481s211.8-95.3,211.8-211.8c0-37.1-10.6-74.1-26.5-103.2
		C457.2,142.2,467.8,115.7,467.8,83.9L467.8,83.9z M282.5,213.6c0-18.5,18.5-31.8,34.4-39.7c13.2-5.3,29.1-10.6,29.1-10.6
		c7.9-2.6,13.2,2.6,15.9,10.6s-2.6,13.2-10.6,15.9c-7.9,2.6-15.9,5.3-23.8,7.9c5.3,5.3,7.9,10.6,7.9,18.5
		c0,15.9-10.6,26.5-26.5,26.5C293.1,242.8,282.5,232.2,282.5,213.6C282.5,216.3,282.5,216.3,282.5,213.6L282.5,213.6z M150.1,173.9
		c2.6-7.9,10.6-13.2,15.9-10.6c0,0,15.9,2.6,29.1,10.6c15.9,7.9,34.4,21.2,34.4,39.7c0,2.6,0,2.6,0,2.6c0,15.9-10.6,26.5-26.5,26.5
		s-26.5-10.6-26.5-26.5c0-7.9,2.6-13.2,7.9-18.5c-7.9-2.6-15.9-5.3-23.8-7.9C152.8,187.2,147.5,179.2,150.1,173.9L150.1,173.9z
		 M256,401.6c-47.6,0-90-26.5-113.8-63.5l34.4-21.2c15.9,26.5,45,45,79.4,45s63.5-18.5,79.4-45l34.4,21.2
		C346,375.1,303.6,401.6,256,401.6z"/>
</g>
</svg>
